{
  "accessors": [
    {
      "bufferView": 2,
      "componentType": 5126,
      "count": 65532,
      "max": [
        0.9999107122421265,
        1.0,
        0.776580274105072
      ],
      "min": [
        -0.9999752044677734,
        -1.0,
        -0.9999921917915344
      ],
      "type": "VEC3"
    },
    {
      "bufferView": 2,
      "byteOffset": 786384,
      "componentType": 5126,
      "count": 65532,
      "max": [
        0.9999158978462219,
        1.0,
        0.7765905261039734
      ],
      "min": [
        -0.9999802708625793,
        -1.0,
        -1.0
      ],
      "type": "VEC3"
    },
    {
      "bufferView": 1,
      "componentType": 5126,
      "count": 65532,
      "max": [
        0.9999942183494568,
        1.0
      ],
      "min": [
        0.0,
        0.0
      ],
      "type": "VEC2"
    },
    {
      "bufferView": 0,
      "componentType": 5125,
      "count": 387408,
      "type": "SCALAR"
    },
    {
      "bufferView": 2,
      "byteOffset": 1572768,
      "componentType": 5126,
      "count": 65532,
      "max": [
        0.8126934170722961,
        0.9999802708625793,
        0.8163363933563232
      ],
      "min": [
        -0.9999160170555115,
        -1.0,
        -0.7628973722457886
      ],
      "type": "VEC3"
    },
    {
      "bufferView": 2,
      "byteOffset": 2359152,
      "componentType": 5126,
      "count": 65532,
      "max": [
        0.8127033114433289,
        0.9999690651893616,
        0.8163475394248962
      ],
      "min": [
        -0.9999210238456726,
        -1.0,
        -0.7629140019416809
      ],
      "type": "VEC3"
    },
    {
      "bufferView": 1,
      "byteOffset": 524256,
      "componentType": 5126,
      "count": 65532,
      "max": [
        0.9999942183494568,
        0.9979942440986633
      ],
      "min": [
        0.004000000189989805,
        0.0
      ],
      "type": "VEC2"
    },
    {
      "bufferView": 0,
      "byteOffset": 1549632,
      "componentType": 5125,
      "count": 386169,
      "type": "SCALAR"
    },
    {
      "bufferView": 2,
      "byteOffset": 3145536,
      "componentType": 5126,
      "count": 65532,
      "max": [
        0.8476771116256714,
        1.0,
        0.8509914875030518
      ],
      "min": [
        -0.9999949932098389,
        -0.5826915502548218,
        -0.9429837465286255
      ],
      "type": "VEC3"
    },
    {
      "bufferView": 2,
      "byteOffset": 3931920,
      "componentType": 5126,
      "count": 65532,
      "max": [
        0.8476848006248474,
        1.0,
        0.8510015606880188
      ],
      "min": [
        -1.0,
        -0.5826816558837891,
        -0.9429916739463806
      ],
      "type": "VEC3"
    },
    {
      "bufferView": 1,
      "byteOffset": 1048512,
      "componentType": 5126,
      "count": 65532,
      "max": [
        0.9999942183494568,
        1.0
      ],
      "min": [
        0.3020002543926239,
        0.3020002543926239
      ],
      "type": "VEC2"
    },
    {
      "bufferView": 0,
      "byteOffset": 3094308,
      "componentType": 5125,
      "count": 385380,
      "type": "SCALAR"
    },
    {
      "bufferView": 2,
      "byteOffset": 4718304,
      "componentType": 5126,
      "count": 57463,
      "max": [
        1.0,
        1.0,
        0.9999974370002747
      ],
      "min": [
        -0.9997383952140808,
        -0.5305124521255493,
        -0.742820143699646
      ],
      "type": "VEC3"
    },
    {
      "bufferView": 2,
      "byteOffset": 5407860,
      "componentType": 5126,
      "count": 57463,
      "max": [
        1.0,
        1.0,
        1.0
      ],
      "min": [
        -0.9997433423995972,
        -0.5305070877075195,
        -0.7428329586982727
      ],
      "type": "VEC3"
    },
    {
      "bufferView": 1,
      "byteOffset": 1572768,
      "componentType": 5126,
      "count": 57463,
      "max": [
        0.9999942183494568,
        1.0
      ],
      "min": [
        0.0020000000949949026,
        0.32200029492378235
      ],
      "type": "VEC2"
    },
    {
      "bufferView": 0,
      "byteOffset": 4635828,
      "componentType": 5125,
      "count": 338043,
      "type": "SCALAR"
    }
  ],
  "asset": {
    "extras": {
      "author": "Jiaxing (https://sketchfab.com/saitoyang)",
      "license": "CC-BY-4.0 (http://creativecommons.org/licenses/by/4.0/)",
      "source": "https://sketchfab.com/3d-models/moon-bc8d6d6fda284b739cd12ec80be51e5a",
      "title": "Moon"
    },
    "generator": "Sketchfab-14.32.1",
    "version": "2.0"
  },
  "bufferViews": [
    {
      "buffer": 0,
      "byteLength": 5988000,
      "name": "floatBufferViews",
      "target": 34963
    },
    {
      "buffer": 0,
      "byteLength": 2032472,
      "byteOffset": 5988000,
      "byteStride": 8,
      "name": "floatBufferViews",
      "target": 34962
    },
    {
      "buffer": 0,
      "byteLength": 6097416,
      "byteOffset": 8020472,
      "byteStride": 12,
      "name": "floatBufferViews",
      "target": 34962
    }
  ],
  "buffers": [
    {
      "byteLength": 14117888,
      "uri": "scene.bin"
    }
  ],
  "images": [
    {
      "uri": "textures/color_baseColor.jpeg"
    }
  ],
  "materials": [
    {
      "doubleSided": true,
      "emissiveFactor": [
        0.03,
        0.03,
        0.03
      ],
      "emissiveTexture": {
        "index": 0
      },
      "name": "color",
      "pbrMetallicRoughness": {
        "baseColorTexture": {
          "index": 0
        },
        "metallicFactor": 0.0
      }
    }
  ],
  "meshes": [
    {
      "name": "pSphere1_color_0",
      "primitives": [
        {
          "attributes": {
            "NORMAL": 1,
            "POSITION": 0,
            "TEXCOORD_0": 2
          },
          "indices": 3,
          "material": 0,
          "mode": 4
        }
      ]
    },
    {
      "name": "pSphere1_color_0",
      "primitives": [
        {
          "attributes": {
            "NORMAL": 5,
            "POSITION": 4,
            "TEXCOORD_0": 6
          },
          "indices": 7,
          "material": 0,
          "mode": 4
        }
      ]
    },
    {
      "name": "pSphere1_color_0",
      "primitives": [
        {
          "attributes": {
            "NORMAL": 9,
            "POSITION": 8,
            "TEXCOORD_0": 10
          },
          "indices": 11,
          "material": 0,
          "mode": 4
        }
      ]
    },
    {
      "name": "pSphere1_color_0",
      "primitives": [
        {
          "attributes": {
            "NORMAL": 13,
            "POSITION": 12,
            "TEXCOORD_0": 14
          },
          "indices": 15,
          "material": 0,
          "mode": 4
        }
      ]
    }
  ],
  "nodes": [
    {
      "children": [
        1
      ],
      "matrix": [
        1.0,
        0.0,
        0.0,
        0.0,
        0.0,
        2.220446049250313e-16,
        -1.0,
        0.0,
        0.0,
        1.0,
        2.220446049250313e-16,
        0.0,
        0.0,
        0.0,
        0.0,
        1.0
      ],
      "name": "Sketchfab_model"
    },
    {
      "children": [
        2
      ],
      "matrix": [
        0.009999999776482582,
        0.0,
        0.0,
        0.0,
        0.0,
        0.0,
        0.009999999776482582,
        0.0,
        0.0,
        -0.009999999776482582,
        0.0,
        0.0,
        0.0,
        0.0,
        0.0,
        1.0
      ],
      "name": "990e381edfd5409f9d7b394a16e2b96a.fbx"
    },
    {
      "children": [
        3
      ],
      "name": "RootNode"
    },
    {
      "children": [
        4,
        5,
        6,
        7
      ],
      "matrix": [
        10.250269889831543,
        0.0,
        0.0,
        0.0,
        0.0,
        10.250269889831543,
        0.0,
        0.0,
        0.0,
        0.0,
        10.250269889831543,
        0.0,
        0.0,
        0.0,
        0.0,
        1.0
      ],
      "name": "pSphere1"
    },
    {
      "mesh": 0,
      "name": "pSphere1_color_0"
    },
    {
      "mesh": 1,
      "name": "pSphere1_color_0"
    },
    {
      "mesh": 2,
      "name": "pSphere1_color_0"
    },
    {
      "mesh": 3,
      "name": "pSphere1_color_0"
    }
  ],
  "samplers": [
    {
      "magFilter": 9729,
      "minFilter": 9987,
      "wrapS": 10497,
      "wrapT": 10497
    }
  ],
  "scene": 0,
  "scenes": [
    {
      "name": "Sketchfab_Scene",
      "nodes": [
        0
      ]
    }
  ],
  "textures": [
    {
      "sampler": 0,
      "source": 0
    }
  ]
}
